<?xml version="1.0" standalone="no"?>
<!DOCTYPE svg PUBLIC "-//W3C//DTD SVG 20010904//EN"
 "http://www.w3.org/TR/2001/REC-SVG-20010904/DTD/svg10.dtd">
<svg version="1.0" xmlns="http://www.w3.org/2000/svg"
 width="966.000000pt" height="364.000000pt" viewBox="0 0 966.000000 364.000000"
 preserveAspectRatio="xMidYMid meet">

<g transform="translate(0.000000,364.000000) scale(0.100000,-0.100000)"
fill="#000000" stroke="none">
<path d="M0 1820 l0 -1820 4830 0 4830 0 0 1820 0 1820 -4830 0 -4830 0 0
-1820z m3020 1250 c0 -5 23 -10 50 -10 28 0 50 -4 50 -10 0 -5 14 -10 30 -10
17 0 30 -4 30 -10 0 -5 14 -10 30 -10 17 0 30 -4 30 -10 0 -5 14 -10 30 -10
17 0 30 -4 30 -10 0 -5 9 -10 20 -10 11 0 20 -4 20 -10 0 -5 9 -10 20 -10 11
0 20 -4 20 -10 0 -5 8 -10 18 -10 10 0 24 -9 32 -20 8 -11 21 -20 30 -20 9 0
22 -9 30 -20 8 -11 20 -20 27 -20 16 0 243 -225 243 -241 0 -6 14 -24 30 -39
17 -15 30 -35 30 -44 0 -9 5 -16 10 -16 6 0 10 -9 10 -20 0 -11 5 -20 10 -20
6 0 10 -9 10 -20 0 -11 5 -20 10 -20 6 0 10 -9 10 -20 0 -11 5 -20 10 -20 6 0
10 -9 10 -20 0 -11 5 -20 10 -20 6 0 10 -13 10 -30 0 -16 5 -30 10 -30 6 0 10
-13 10 -30 0 -16 5 -30 10 -30 6 0 10 -18 10 -40 0 -22 5 -40 10 -40 6 0 10
-30 10 -70 0 -40 4 -70 10 -70 6 0 10 -43 10 -110 0 -67 -4 -110 -10 -110 -6
0 -10 -27 -10 -60 0 -33 -4 -60 -10 -60 -5 0 -10 -22 -10 -50 0 -27 -4 -50
-10 -50 -5 0 -10 -13 -10 -30 0 -16 -4 -30 -10 -30 -5 0 -10 -9 -10 -20 0 -11
-4 -20 -10 -20 -5 0 -10 -13 -10 -30 0 -16 -4 -30 -10 -30 -5 0 -10 -9 -10
-20 0 -11 -4 -20 -10 -20 -5 0 -10 -8 -10 -18 0 -10 -9 -24 -20 -32 -11 -8
-20 -22 -20 -32 0 -10 -4 -18 -10 -18 -5 0 -10 -7 -10 -16 0 -9 -13 -29 -30
-44 -16 -15 -30 -33 -30 -39 0 -15 -166 -181 -181 -181 -6 0 -24 -13 -39 -30
-15 -16 -35 -30 -44 -30 -9 0 -16 -4 -16 -10 0 -5 -8 -10 -18 -10 -10 0 -24
-9 -32 -20 -8 -11 -22 -20 -32 -20 -10 0 -18 -4 -18 -10 0 -5 -9 -10 -20 -10
-11 0 -20 -4 -20 -10 0 -5 -13 -10 -30 -10 -16 0 -30 -4 -30 -10 0 -5 -9 -10
-20 -10 -11 0 -20 -4 -20 -10 0 -5 -13 -10 -30 -10 -16 0 -30 -4 -30 -10 0 -5
-22 -10 -50 -10 -27 0 -50 -4 -50 -10 0 -6 -27 -10 -60 -10 -33 0 -60 -4 -60
-10 0 -6 -43 -10 -110 -10 -67 0 -110 4 -110 10 0 6 -30 10 -70 10 -40 0 -70
4 -70 10 0 6 -18 10 -40 10 -22 0 -40 5 -40 10 0 6 -13 10 -30 10 -16 0 -30 5
-30 10 0 6 -13 10 -30 10 -16 0 -30 5 -30 10 0 6 -9 10 -20 10 -11 0 -20 5
-20 10 0 6 -9 10 -20 10 -11 0 -20 5 -20 10 0 6 -9 10 -20 10 -11 0 -20 5 -20
10 0 6 -9 10 -20 10 -11 0 -20 5 -20 10 0 6 -7 10 -16 10 -9 0 -29 14 -44 30
-15 17 -33 30 -39 30 -16 0 -241 227 -241 243 0 7 -9 19 -20 27 -11 8 -20 21
-20 30 0 9 -9 22 -20 30 -11 8 -20 22 -20 32 0 10 -4 18 -10 18 -5 0 -10 9
-10 20 0 11 -4 20 -10 20 -5 0 -10 9 -10 20 0 11 -4 20 -10 20 -5 0 -10 14
-10 30 0 17 -4 30 -10 30 -5 0 -10 14 -10 30 0 17 -4 30 -10 30 -5 0 -10 14
-10 30 0 17 -4 30 -10 30 -5 0 -10 23 -10 50 0 28 -4 50 -10 50 -6 0 -10 70
-10 190 0 120 4 190 10 190 6 0 10 23 10 50 0 28 5 50 10 50 6 0 10 18 10 40
0 22 5 40 10 40 6 0 10 14 10 30 0 17 5 30 10 30 6 0 10 9 10 20 0 11 5 20 10
20 6 0 10 9 10 20 0 11 5 20 10 20 6 0 10 9 10 20 0 11 5 20 10 20 6 0 10 9
10 20 0 11 5 20 10 20 6 0 10 8 10 18 0 10 9 24 20 32 11 8 20 21 20 28 0 8
14 27 30 42 17 15 30 33 30 39 0 15 146 161 161 161 6 0 24 14 39 30 15 17 34
30 42 30 7 0 20 9 28 20 8 11 22 20 32 20 10 0 18 5 18 10 0 6 9 10 20 10 11
0 20 5 20 10 0 6 9 10 20 10 11 0 20 5 20 10 0 6 9 10 20 10 11 0 20 5 20 10
0 6 9 10 20 10 11 0 20 5 20 10 0 6 14 10 30 10 17 0 30 5 30 10 0 6 18 10 40
10 22 0 40 5 40 10 0 6 23 10 50 10 28 0 50 5 50 10 0 6 70 10 190 10 120 0
190 -4 190 -10z m2020 -380 c0 -5 22 -10 48 -10 36 0 51 -5 62 -20 8 -11 20
-20 28 -20 18 0 42 -25 42 -44 0 -9 5 -16 10 -16 6 0 10 -9 10 -20 0 -11 5
-20 10 -20 6 0 10 -18 10 -40 0 -22 5 -40 10 -40 6 0 10 -22 10 -50 0 -27 -4
-50 -10 -50 -5 0 -10 -18 -10 -40 0 -22 -4 -40 -10 -40 -5 0 -10 -9 -10 -20 0
-11 -4 -20 -10 -20 -5 0 -10 -7 -10 -15 0 -20 -45 -65 -65 -65 -8 0 -15 -4
-15 -10 0 -5 -9 -10 -20 -10 -11 0 -20 -4 -20 -10 0 -6 -27 -10 -60 -10 -33 0
-60 4 -60 10 0 6 -13 10 -28 10 -16 0 -34 8 -42 20 -8 11 -22 20 -32 20 -11 0
-18 7 -18 18 0 10 -9 24 -20 32 -12 8 -20 26 -20 42 0 15 -4 28 -10 28 -6 0
-10 43 -10 110 0 67 4 110 10 110 6 0 10 9 10 20 0 11 5 20 10 20 6 0 10 7 10
15 0 9 16 31 35 50 19 19 41 35 50 35 8 0 15 5 15 10 0 6 18 10 40 10 22 0 40
5 40 10 0 6 5 10 10 10 6 0 10 -4 10 -10z m860 0 c0 -5 18 -10 40 -10 22 0 40
-4 40 -10 0 -5 9 -10 20 -10 11 0 20 -4 20 -10 0 -5 9 -10 20 -10 23 0 27 -25
6 -46 -17 -16 -46 -19 -46 -4 0 6 -9 10 -20 10 -11 0 -20 5 -20 10 0 6 -25 10
-55 10 -46 0 -60 -4 -80 -25 -14 -13 -25 -33 -25 -45 0 -29 64 -90 95 -90 14
0 25 -4 25 -10 0 -5 9 -10 20 -10 11 0 20 -4 20 -10 0 -5 7 -10 15 -10 9 0 36
-20 60 -45 40 -40 45 -49 45 -90 0 -25 -4 -45 -10 -45 -5 0 -10 -7 -10 -15 0
-20 -65 -85 -85 -85 -8 0 -15 -4 -15 -10 0 -6 -30 -10 -70 -10 -40 0 -70 4
-70 10 0 6 -13 10 -30 10 -16 0 -30 5 -30 10 0 6 -7 10 -16 10 -18 0 -44 23
-44 40 0 38 66 53 90 20 12 -17 26 -20 88 -20 64 0 76 3 97 25 14 13 25 33 25
45 0 24 -62 90 -85 90 -8 0 -15 5 -15 10 0 6 -13 10 -30 10 -16 0 -30 5 -30
10 0 6 -8 10 -18 10 -10 0 -24 9 -32 20 -8 11 -22 20 -32 20 -11 0 -18 7 -18
20 0 11 -4 20 -10 20 -6 0 -10 27 -10 60 0 33 4 60 10 60 6 0 10 9 10 20 0 13
7 20 18 20 10 0 24 9 32 20 10 14 26 20 52 20 21 0 38 5 38 10 0 6 5 10 10 10
6 0 10 -4 10 -10z m1160 0 c0 -5 22 -10 48 -10 36 0 51 -5 62 -20 8 -11 20
-20 28 -20 18 0 42 -25 42 -44 0 -9 5 -16 10 -16 6 0 10 -9 10 -20 0 -11 5
-20 10 -20 6 0 10 -13 10 -30 0 -16 5 -30 10 -30 6 0 10 -30 10 -70 0 -40 -4
-70 -10 -70 -5 0 -10 -18 -10 -40 0 -22 -4 -40 -10 -40 -5 0 -10 -7 -10 -15 0
-20 -65 -85 -85 -85 -8 0 -15 -4 -15 -10 0 -5 -9 -10 -20 -10 -11 0 -20 -4
-20 -10 0 -6 -27 -10 -60 -10 -33 0 -60 4 -60 10 0 6 -11 10 -25 10 -29 0
-115 79 -115 105 0 8 -4 15 -10 15 -5 0 -10 9 -10 20 0 11 -4 20 -10 20 -6 0
-10 40 -10 100 0 60 4 100 10 100 6 0 10 14 10 30 0 17 5 30 10 30 6 0 10 7
10 15 0 20 65 85 85 85 8 0 15 5 15 10 0 6 18 10 40 10 22 0 40 5 40 10 0 6 5
10 10 10 6 0 10 -4 10 -10z m-2680 -30 c0 -11 5 -20 10 -20 6 0 10 -9 10 -20
0 -11 5 -20 10 -20 6 0 10 -13 10 -30 0 -16 5 -30 10 -30 6 0 10 -9 10 -20 0
-11 5 -20 10 -20 6 0 10 -9 10 -20 0 -11 5 -20 10 -20 6 0 10 -9 10 -20 0 -11
3 -20 6 -20 14 0 34 31 34 54 0 14 5 26 10 26 6 0 10 9 10 20 0 11 5 20 10 20
6 0 10 9 10 20 0 11 5 20 10 20 6 0 10 14 10 30 0 17 5 30 10 30 6 0 10 9 10
20 0 17 7 20 50 20 28 0 50 -4 50 -10 0 -5 -4 -10 -10 -10 -5 0 -10 -9 -10
-20 0 -11 -4 -20 -10 -20 -5 0 -10 -9 -10 -20 0 -11 -4 -20 -10 -20 -5 0 -10
-9 -10 -20 0 -11 -4 -20 -10 -20 -5 0 -10 -9 -10 -20 0 -11 -4 -20 -10 -20 -5
0 -10 -9 -10 -20 0 -11 -4 -20 -10 -20 -5 0 -10 -9 -10 -20 0 -11 -4 -20 -10
-20 -5 0 -10 -9 -10 -20 0 -11 -4 -20 -10 -20 -6 0 -10 -47 -10 -120 l0 -120
-50 0 -50 0 0 120 c0 73 -4 120 -10 120 -5 0 -10 9 -10 20 0 11 -4 20 -10 20
-5 0 -10 9 -10 20 0 11 -4 20 -10 20 -5 0 -10 9 -10 20 0 11 -4 20 -10 20 -5
0 -10 9 -10 20 0 11 -4 20 -10 20 -5 0 -10 9 -10 20 0 11 -4 20 -10 20 -5 0
-10 9 -10 20 0 11 -4 20 -10 20 -5 0 -10 9 -10 20 0 11 -4 20 -10 20 -5 0 -10
5 -10 10 0 6 23 10 50 10 43 0 50 -3 50 -20z m1140 -250 l0 -270 -40 0 -40 0
0 270 0 270 40 0 40 0 0 -270z m800 160 l0 -110 120 0 120 0 0 110 0 110 40 0
40 0 0 -270 0 -270 -40 0 -40 0 0 120 0 120 -120 0 -120 0 0 -120 0 -120 -40
0 -40 0 0 270 0 270 40 0 40 0 0 -110z m-1752 -847 c12 -12 13 -18 4 -21 -6
-2 -12 -12 -12 -23 0 -10 -4 -19 -10 -19 -5 0 -10 -9 -10 -20 0 -11 -4 -20
-10 -20 -6 0 -10 -50 -10 -130 0 -71 2 -130 5 -130 13 0 135 131 135 145 0 8
5 15 10 15 6 0 10 9 10 20 0 11 5 20 10 20 6 0 10 9 10 20 0 18 -7 20 -60 20
-53 0 -60 2 -60 20 0 16 7 20 30 20 23 0 30 4 30 20 0 11 -4 20 -10 20 -5 0
-10 14 -10 30 0 23 4 30 20 30 13 0 20 -7 20 -20 0 -11 5 -20 10 -20 6 0 10
-9 10 -20 0 -11 -4 -20 -10 -20 -5 0 -10 -4 -10 -10 0 -5 18 -10 40 -10 33 0
40 3 40 20 0 11 5 20 10 20 6 0 10 14 10 30 0 23 4 30 20 30 17 0 20 -7 20
-40 0 -22 -4 -40 -10 -40 -5 0 -10 -4 -10 -10 0 -5 23 -10 50 -10 49 0 50 -1
50 -30 0 -16 -4 -30 -10 -30 -5 0 -10 -9 -10 -20 0 -13 7 -20 20 -20 18 0 20
-7 20 -60 0 -53 2 -60 20 -60 18 0 20 -7 20 -70 0 -40 -4 -70 -10 -70 -5 0
-10 -13 -10 -30 0 -23 -4 -30 -20 -30 -11 0 -20 -4 -20 -10 0 -15 -49 -12 -66
4 -20 21 -18 26 12 26 29 0 54 21 54 44 0 9 5 16 10 16 6 0 10 18 10 40 l0 40
-150 0 c-143 0 -150 -1 -150 -20 0 -13 7 -20 20 -20 13 0 20 -7 20 -20 0 -11
-4 -20 -10 -20 -5 0 -10 -9 -10 -20 0 -11 -4 -20 -10 -20 -5 0 -10 -9 -10 -20
0 -24 -6 -25 -28 -3 -12 12 -13 18 -4 21 6 2 12 12 12 23 0 10 5 19 10 19 6 0
10 9 10 20 0 23 -34 28 -44 8 -5 -10 -7 -10 -12 0 -14 30 -24 7 -24 -58 0 -63
-2 -70 -20 -70 -19 0 -20 7 -20 150 0 141 -1 150 -19 150 -11 0 -21 -6 -23
-12 -3 -9 -9 -8 -21 4 -24 23 -21 36 13 68 17 15 30 35 30 44 0 9 5 16 10 16
6 0 10 9 10 20 0 11 5 20 10 20 6 0 10 9 10 20 0 11 5 20 10 20 6 0 10 9 10
20 0 24 25 26 48 3z m1732 -33 c27 -27 54 -50 60 -50 7 0 25 -13 40 -30 15
-16 35 -30 44 -30 9 0 16 -4 16 -10 0 -5 9 -10 20 -10 24 0 26 -25 3 -48 -12
-12 -18 -13 -21 -4 -2 6 -11 12 -21 12 -9 0 -23 9 -31 20 -8 11 -18 20 -22 20
-4 0 -8 -9 -8 -20 0 -19 -7 -20 -140 -20 -133 0 -140 1 -140 20 0 11 -4 20
-10 20 -5 0 -10 -4 -10 -10 0 -5 -7 -10 -16 -10 -9 0 -25 -9 -35 -21 -16 -19
-20 -20 -34 -6 -21 22 -19 47 5 47 11 0 20 5 20 10 0 6 8 10 18 11 9 0 51 36
92 79 50 52 83 79 98 79 15 1 40 -16 72 -49z m600 0 c0 -47 2 -50 26 -50 29 0
67 -31 46 -38 -6 -2 -12 -12 -12 -23 0 -10 -4 -19 -10 -19 -5 0 -10 -7 -10
-16 0 -9 -9 -25 -21 -35 -19 -16 -20 -20 -6 -34 9 -8 21 -15 27 -15 20 0 40
-28 40 -54 0 -19 -5 -26 -20 -26 -13 0 -20 7 -20 20 0 13 -7 20 -20 20 -19 0
-20 -7 -20 -110 0 -93 -2 -110 -16 -110 -35 0 -44 26 -44 124 0 53 -3 96 -6
96 -3 0 -19 -14 -35 -31 -26 -27 -30 -29 -44 -16 -19 20 -19 47 0 47 20 0 125
105 125 125 0 8 5 15 10 15 6 0 10 9 10 20 0 18 -7 20 -60 20 -33 0 -60 -4
-60 -10 0 -5 -4 -10 -10 -10 -5 0 -10 14 -10 30 0 28 2 30 40 30 l40 0 0 50
c0 49 1 50 30 50 29 0 30 -1 30 -50z m260 -40 l0 -90 60 0 c48 0 60 -3 60 -16
0 -28 -27 -44 -74 -44 l-46 0 0 -110 0 -110 56 0 c65 0 96 -19 70 -45 -12 -12
-45 -15 -170 -15 l-156 0 0 30 0 30 70 0 70 0 0 120 c0 73 -4 120 -10 120 -5
0 -10 -4 -10 -10 0 -15 -70 -12 -86 4 -8 8 -14 22 -14 30 0 13 12 16 60 16
l60 0 0 90 0 90 30 0 30 0 0 -90z m-1620 20 c0 -5 9 -10 20 -10 11 0 20 -4 20
-10 0 -5 7 -10 15 -10 26 0 85 -66 85 -95 0 -14 5 -25 10 -25 6 0 10 -27 10
-60 0 -33 -4 -60 -10 -60 -5 0 -10 -11 -10 -25 0 -35 -80 -115 -115 -115 -14
0 -25 -4 -25 -10 0 -16 -50 -12 -66 5 -14 13 -14 17 0 30 8 8 26 15 40 15 14
0 26 5 26 10 0 6 7 10 15 10 20 0 65 45 65 65 0 8 5 15 10 15 6 0 10 27 10 60
0 33 -4 60 -10 60 -5 0 -10 7 -10 15 0 9 -16 31 -35 50 -40 40 -85 48 -85 15
0 -11 -4 -20 -10 -20 -5 0 -10 -18 -10 -40 0 -22 -4 -40 -10 -40 -5 0 -10 -18
-10 -40 0 -22 -4 -40 -10 -40 -5 0 -10 -9 -10 -20 0 -11 -4 -20 -10 -20 -5 0
-10 -7 -10 -15 0 -29 -67 -85 -100 -85 -33 0 -80 38 -80 65 0 8 -4 15 -10 15
-6 0 -10 33 -10 80 0 47 4 80 10 80 6 0 10 7 10 15 0 20 85 105 105 105 8 0
15 5 15 10 0 6 14 10 30 10 17 0 30 5 30 10 0 6 27 10 60 10 33 0 60 -4 60
-10z m940 -240 l0 -30 -140 0 c-133 0 -140 -1 -140 -20 0 -11 -4 -20 -10 -20
-5 0 -10 -9 -10 -20 0 -11 -4 -20 -10 -20 -5 0 -10 -9 -10 -20 0 -19 7 -20 90
-20 77 0 90 2 90 16 0 9 -9 25 -21 35 -19 16 -20 20 -6 34 9 8 21 15 27 15 15
0 80 -67 80 -82 0 -8 9 -20 20 -28 31 -23 26 -50 -10 -50 -16 0 -30 5 -30 10
0 6 -60 10 -160 10 -100 0 -160 -4 -160 -10 0 -15 -49 -12 -66 4 -30 30 -17
46 36 46 43 0 50 3 50 20 0 11 5 20 10 20 6 0 10 9 10 20 0 11 5 20 10 20 6 0
10 9 10 20 0 18 -7 20 -70 20 l-70 0 0 30 0 30 240 0 240 0 0 -30z m-1634 -84
c14 -14 20 -46 9 -46 -8 0 -55 47 -55 55 0 11 32 5 46 -9z m-140 -20 c8 -8 14
-31 14 -50 0 -29 -4 -36 -20 -36 -17 0 -20 7 -20 50 0 53 3 58 26 36z m74 -5
c0 -11 6 -21 12 -23 9 -3 8 -9 -4 -21 -23 -24 -28 -21 -28 13 0 17 -4 30 -10
30 -5 0 -10 5 -10 10 0 6 9 10 20 10 13 0 20 -7 20 -19z"/>
<path d="M2720 2930 c0 -5 -9 -10 -20 -10 -11 0 -20 -4 -20 -10 0 -5 -7 -10
-16 -10 -9 0 -29 -13 -44 -30 -15 -16 -33 -30 -40 -30 -15 0 -40 -25 -40 -40
0 -6 -18 -29 -40 -50 -22 -21 -40 -46 -40 -54 0 -9 -4 -16 -10 -16 -5 0 -10
-9 -10 -20 0 -11 -4 -20 -10 -20 -5 0 -10 -9 -10 -20 0 -11 -4 -20 -10 -20 -5
0 -10 -9 -10 -20 0 -11 -4 -20 -10 -20 -5 0 -10 -9 -10 -20 0 -11 -4 -20 -10
-20 -5 0 -10 -13 -10 -30 l0 -30 200 0 200 0 0 226 c0 182 -3 228 -14 240 -17
16 -26 18 -26 4z"/>
<path d="M2900 2700 l0 -240 200 0 c193 0 200 1 200 20 0 11 -4 20 -10 20 -5
0 -10 9 -10 20 0 11 -4 20 -10 20 -5 0 -10 9 -10 20 0 11 -4 20 -10 20 -5 0
-10 9 -10 20 0 11 -4 20 -10 20 -5 0 -10 9 -10 20 0 11 -4 20 -10 20 -5 0 -10
8 -10 18 0 10 -9 24 -20 32 -11 8 -20 20 -20 27 0 8 -29 43 -65 78 -35 36 -70
65 -78 65 -7 0 -19 9 -27 20 -8 12 -26 20 -42 20 -15 0 -28 5 -28 10 0 6 -4
10 -10 10 -6 0 -10 -87 -10 -240z"/>
<path d="M2330 2820 c-8 -11 -21 -20 -30 -20 -9 0 -22 -9 -30 -20 -8 -11 -21
-20 -28 -20 -8 0 -27 -13 -42 -30 -15 -16 -33 -30 -39 -30 -15 0 -141 -126
-141 -141 0 -6 -13 -24 -30 -39 -56 -52 -45 -60 86 -60 126 0 144 7 144 54 0
14 5 26 10 26 6 0 10 9 10 20 0 11 5 20 10 20 6 0 10 9 10 20 0 11 5 20 10 20
6 0 10 13 10 28 0 16 8 34 20 42 11 8 20 22 20 32 0 10 5 18 10 18 6 0 10 8
10 18 0 10 9 24 20 32 11 8 20 22 20 32 0 24 -32 23 -50 -2z"/>
<path d="M3260 2832 c0 -4 9 -14 20 -22 11 -8 20 -22 20 -32 0 -10 5 -18 10
-18 6 0 10 -9 10 -20 0 -11 5 -20 10 -20 6 0 10 -9 10 -20 0 -11 5 -20 10 -20
6 0 10 -9 10 -20 0 -11 5 -20 10 -20 6 0 10 -9 10 -20 0 -11 5 -20 10 -20 6 0
10 -9 10 -20 0 -11 5 -20 10 -20 6 0 10 -13 10 -30 0 -16 5 -30 10 -30 6 0 10
-9 10 -20 0 -19 7 -20 130 -20 72 0 130 4 130 8 0 4 -9 14 -20 22 -11 8 -20
20 -20 27 0 17 -206 223 -223 223 -7 0 -19 9 -27 20 -8 11 -21 20 -30 20 -9 0
-22 9 -30 20 -8 11 -22 20 -32 20 -10 0 -18 5 -18 10 0 6 -9 10 -20 10 -11 0
-20 -4 -20 -8z"/>
<path d="M1873 2305 c-7 -8 -13 -21 -13 -30 0 -8 -4 -15 -10 -15 -5 0 -10 -18
-10 -40 0 -22 -4 -40 -10 -40 -5 0 -10 -18 -10 -40 0 -22 -4 -40 -10 -40 -6 0
-10 -27 -10 -60 l0 -60 160 0 160 0 0 30 c0 17 5 30 10 30 6 0 10 37 10 90 0
53 4 90 10 90 6 0 10 23 10 50 l0 50 -137 0 c-106 -1 -141 -4 -150 -15z"/>
<path d="M2313 2305 c-7 -8 -13 -30 -13 -50 0 -19 -4 -35 -10 -35 -6 0 -10
-33 -10 -80 0 -47 -4 -80 -10 -80 -15 0 -12 -49 4 -66 12 -11 57 -14 236 -14
179 0 224 3 236 14 11 11 14 49 14 170 l0 156 -217 0 c-175 -1 -220 -4 -230
-15z"/>
<path d="M2900 2150 l0 -170 240 0 240 0 0 90 c0 53 -4 90 -10 90 -6 0 -10 27
-10 60 0 33 -4 60 -10 60 -5 0 -10 9 -10 20 0 19 -7 20 -220 20 l-220 0 0
-170z"/>
<path d="M3480 2300 c0 -11 5 -20 10 -20 6 0 10 -30 10 -70 0 -40 4 -70 10
-70 6 0 10 -33 10 -80 l0 -80 156 0 c121 0 159 3 170 14 16 17 19 46 4 46 -5
0 -10 23 -10 50 0 28 -4 50 -10 50 -5 0 -10 18 -10 40 0 22 -4 40 -10 40 -5 0
-10 14 -10 30 0 17 -4 30 -10 30 -5 0 -10 9 -10 20 0 19 -7 20 -150 20 -143 0
-150 -1 -150 -20z"/>
<path d="M1800 1780 c0 -33 4 -60 10 -60 6 0 10 -18 10 -40 0 -22 5 -40 10
-40 6 0 10 -13 10 -30 0 -16 5 -30 10 -30 6 0 10 -13 10 -30 l0 -30 150 0 150
0 0 50 c0 28 -4 50 -10 50 -6 0 -10 37 -10 90 0 53 -4 90 -10 90 -5 0 -10 9
-10 20 0 19 -7 20 -160 20 l-160 0 0 -60z"/>
<path d="M2260 1810 c0 -16 5 -30 10 -30 6 0 10 -37 10 -90 0 -53 4 -90 10
-90 6 0 10 -18 10 -40 l0 -40 230 0 230 0 0 160 0 160 -250 0 -250 0 0 -30z"/>
<path d="M2900 1680 l0 -160 220 0 c213 0 220 1 220 20 0 11 5 20 10 20 6 0
10 27 10 60 0 33 4 60 10 60 6 0 10 33 10 80 l0 80 -240 0 -240 0 0 -160z"/>
<path d="M3520 1760 c0 -47 -4 -80 -10 -80 -6 0 -10 -27 -10 -60 0 -33 -4 -60
-10 -60 -5 0 -10 -9 -10 -20 0 -19 7 -20 150 -20 143 0 150 1 150 20 0 11 5
20 10 20 6 0 10 9 10 20 0 11 5 20 10 20 6 0 10 18 10 40 0 22 5 40 10 40 6 0
10 27 10 60 0 33 4 60 10 60 6 0 10 9 10 20 0 19 -7 20 -170 20 l-170 0 0 -80z"/>
<path d="M1960 1362 c0 -10 9 -24 20 -32 11 -8 20 -20 20 -27 0 -17 206 -223
223 -223 7 0 19 -9 27 -20 8 -11 22 -20 32 -20 10 0 18 -4 18 -10 0 -5 8 -10
18 -10 10 0 24 -9 32 -20 8 -11 18 -20 22 -20 4 0 8 9 8 20 0 11 -4 20 -10 20
-5 0 -10 8 -10 18 0 10 -9 24 -20 32 -11 8 -20 22 -20 32 0 10 -4 18 -10 18
-5 0 -10 9 -10 20 0 11 -4 20 -10 20 -5 0 -10 9 -10 20 0 11 -4 20 -10 20 -5
0 -10 9 -10 20 0 11 -4 20 -10 20 -5 0 -10 14 -10 30 0 17 -4 30 -10 30 -5 0
-10 12 -10 26 0 47 -18 54 -144 54 -105 0 -116 -2 -116 -18z"/>
<path d="M2360 1350 c0 -16 5 -30 10 -30 6 0 10 -13 10 -30 0 -16 5 -30 10
-30 6 0 10 -9 10 -20 0 -11 5 -20 10 -20 6 0 10 -8 10 -18 0 -10 9 -24 20 -32
11 -8 20 -21 20 -30 0 -9 9 -22 20 -30 11 -8 20 -20 20 -27 0 -19 126 -143
145 -143 8 0 15 -4 15 -10 0 -5 9 -10 20 -10 11 0 20 -4 20 -10 0 -5 14 -10
30 -10 l30 0 0 226 c0 182 -3 228 -14 240 -12 11 -53 14 -200 14 l-186 0 0
-30z"/>
<path d="M2900 1140 c0 -233 1 -240 20 -240 11 0 20 5 20 10 0 6 9 10 20 10
11 0 20 5 20 10 0 6 8 10 18 10 10 0 24 9 32 20 8 11 20 20 28 20 16 0 62 45
62 61 0 6 14 24 30 39 17 15 30 34 30 42 0 7 9 20 20 28 11 8 20 22 20 32 0
10 5 18 10 18 6 0 10 9 10 20 0 11 5 20 10 20 6 0 10 14 10 30 0 17 5 30 10
30 6 0 10 9 10 19 0 11 6 21 12 23 9 3 8 9 -4 21 -14 15 -42 17 -202 17 l-186
0 0 -240z"/>
<path d="M3453 1365 c-7 -8 -13 -21 -13 -30 0 -8 -4 -15 -10 -15 -5 0 -10 -9
-10 -20 0 -11 -4 -20 -10 -20 -5 0 -10 -13 -10 -30 0 -16 -4 -30 -10 -30 -5 0
-10 -9 -10 -20 0 -11 -4 -20 -10 -20 -5 0 -10 -9 -10 -20 0 -11 -4 -20 -10
-20 -5 0 -10 -9 -10 -20 0 -11 -4 -20 -10 -20 -5 0 -10 -7 -10 -16 0 -9 -13
-29 -30 -44 -29 -27 -40 -60 -20 -60 6 0 10 5 10 10 0 6 9 10 20 10 11 0 20 5
20 10 0 6 8 10 18 10 10 0 24 9 32 20 8 11 21 20 28 20 8 0 27 14 42 30 15 17
33 30 39 30 15 0 141 126 141 141 0 6 14 24 30 39 18 17 30 38 30 54 l0 26
-107 0 c-80 -1 -111 -4 -120 -15z"/>
<path d="M4980 2610 c0 -5 -7 -10 -16 -10 -20 0 -44 -24 -44 -44 0 -9 -4 -16
-10 -16 -5 0 -10 -9 -10 -20 0 -11 -4 -20 -10 -20 -6 0 -10 -37 -10 -90 0 -53
4 -90 10 -90 6 0 10 -9 10 -20 0 -11 5 -20 10 -20 6 0 10 -7 10 -15 0 -9 11
-27 25 -40 20 -21 34 -25 85 -25 56 0 63 3 95 35 19 19 35 41 35 50 0 8 5 15
10 15 6 0 10 43 10 110 0 67 -4 110 -10 110 -5 0 -10 7 -10 15 0 20 -45 65
-65 65 -8 0 -15 5 -15 10 0 6 -22 10 -50 10 -27 0 -50 -4 -50 -10z"/>
<path d="M6963 2575 c-28 -29 -43 -54 -43 -70 0 -14 -4 -25 -10 -25 -6 0 -10
-30 -10 -70 0 -40 4 -70 10 -70 6 0 10 -13 10 -30 0 -16 5 -30 10 -30 6 0 10
-7 10 -15 0 -9 11 -27 25 -40 20 -21 34 -25 85 -25 56 0 63 3 95 35 19 19 35
41 35 50 0 8 5 15 10 15 6 0 10 22 10 49 0 30 5 52 13 55 10 5 10 7 0 12 -8 3
-13 25 -13 55 0 27 -4 49 -10 49 -5 0 -10 7 -10 15 0 20 -45 65 -65 65 -8 0
-15 5 -15 10 0 6 -21 10 -47 9 -43 0 -52 -5 -90 -44z"/>
<path d="M4760 1580 c0 -11 -4 -20 -10 -20 -5 0 -10 -9 -10 -20 0 -22 15 -27
23 -7 4 9 8 9 15 -2 9 -12 13 -12 26 2 9 8 16 27 16 41 0 22 -4 26 -30 26 -23
0 -30 -4 -30 -20z"/>
<path d="M4703 1475 c-42 -45 -32 -55 53 -55 52 0 80 4 90 14 35 36 3 66 -68
65 -43 0 -57 -5 -75 -24z"/>
<path d="M6173 1624 c-29 -29 -53 -56 -53 -59 0 -3 54 -5 120 -5 66 0 120 2
120 5 0 12 -111 115 -122 114 -7 0 -37 -25 -65 -55z"/>
<path d="M5370 1600 c-8 -11 -20 -20 -28 -20 -18 0 -42 -25 -42 -44 0 -9 -4
-16 -10 -16 -5 0 -10 -9 -10 -20 0 -11 -4 -20 -10 -20 -5 0 -10 -18 -10 -40 0
-22 5 -40 10 -40 6 0 10 -7 10 -16 0 -18 23 -44 40 -44 16 0 60 47 60 65 0 8
5 15 10 15 6 0 10 14 10 30 0 17 5 30 10 30 6 0 10 18 10 40 0 22 5 40 10 40
6 0 10 14 10 30 0 26 -4 30 -28 30 -16 0 -34 -8 -42 -20z"/>
</g>
</svg>
